<svg xmlns="http://www.w3.org/2000/svg" xmlns:xlink="http://www.w3.org/1999/xlink" width="1920" zoomAndPan="magnify" viewBox="0 0 1440 809.999993" height="1080" preserveAspectRatio="xMidYMid meet" version="1.0"><defs><clipPath id="6e30eff313"><path d="M 0 776.335938 L 35.574219 776.335938 L 35.574219 810 L 0 810 Z M 0 776.335938 " clip-rule="nonzero"/></clipPath></defs><g clip-path="url(#6e30eff313)"><path fill="#000000" d="M 10.976562 889.664062 L 14.578125 886.0625 C 23.25 877.390625 23.25 863.285156 14.574219 854.617188 C 5.902344 845.949219 -8.210938 845.949219 -16.886719 854.617188 L -20.488281 858.214844 C -40.703125 843.816406 -65.082031 834.90625 -91.4375 833.667969 L -91.4375 814.453125 L -78.722656 814.453125 C -68.207031 814.453125 -59.652344 805.902344 -59.652344 795.394531 C -59.652344 784.882812 -68.207031 776.335938 -78.722656 776.335938 L -116.863281 776.335938 C -127.378906 776.335938 -135.933594 784.882812 -135.933594 795.394531 C -135.933594 805.902344 -127.378906 814.453125 -116.863281 814.453125 L -104.148438 814.453125 L -104.148438 833.667969 C -174.8125 836.992188 -231.28125 895.488281 -231.28125 966.921875 C -231.28125 1040.488281 -171.398438 1100.335938 -97.792969 1100.335938 C -24.1875 1100.335938 35.695312 1040.488281 35.695312 966.921875 C 35.695312 938.152344 26.535156 911.480469 10.976562 889.664062 Z M -123.21875 795.394531 C -123.21875 791.890625 -120.367188 789.039062 -116.863281 789.039062 L -78.722656 789.039062 C -75.21875 789.039062 -72.367188 791.890625 -72.367188 795.394531 C -72.367188 798.898438 -75.21875 801.746094 -78.722656 801.746094 L -116.863281 801.746094 C -120.367188 801.746094 -123.21875 798.898438 -123.21875 795.394531 Z M -7.898438 863.601562 C -4.179688 859.886719 1.867188 859.886719 5.585938 863.601562 C 9.304688 867.316406 9.304688 873.363281 5.585938 877.078125 L 3.054688 879.609375 C -1.113281 874.804688 -5.621094 870.300781 -10.429688 866.132812 Z M -97.792969 1087.628906 C -164.390625 1087.628906 -218.566406 1033.480469 -218.566406 966.921875 C -218.566406 900.363281 -164.390625 846.21875 -97.792969 846.21875 C -31.195312 846.21875 22.980469 900.363281 22.980469 966.921875 C 22.980469 1033.480469 -31.195312 1087.628906 -97.792969 1087.628906 Z M -97.792969 1087.628906 " fill-opacity="1" fill-rule="nonzero"/></g><path fill="#000000" d="M 681.933594 92.9375 L 699.710938 110.714844 Z M 401.105469 373.769531 L 383.328125 355.992188 Z M 401.105469 444.871094 L 418.878906 427.09375 Z M 681.933594 725.703125 L 664.160156 743.476562 Z M 753.035156 725.703125 L 735.257812 707.925781 Z M 1033.867188 444.871094 L 1051.640625 462.644531 Z M 1033.867188 373.769531 L 1016.089844 391.542969 Z M 753.035156 92.9375 L 770.808594 75.164062 Z M 664.160156 75.164062 L 383.328125 355.992188 L 418.878906 391.542969 L 699.710938 110.714844 Z M 383.328125 462.644531 L 664.160156 743.476562 L 699.710938 707.925781 L 418.878906 427.09375 Z M 770.808594 743.476562 L 1051.640625 462.644531 L 1016.089844 427.09375 L 735.257812 707.925781 Z M 1051.640625 355.992188 L 770.808594 75.164062 L 735.257812 110.714844 L 1016.089844 391.542969 Z M 1051.640625 462.644531 C 1081.089844 433.195312 1081.089844 385.445312 1051.640625 355.992188 L 1016.089844 391.542969 C 1025.910156 401.363281 1025.910156 417.277344 1016.089844 427.09375 Z M 664.160156 743.476562 C 693.609375 772.925781 741.359375 772.925781 770.808594 743.476562 L 735.257812 707.925781 C 725.441406 717.742188 709.527344 717.742188 699.710938 707.925781 Z M 383.328125 355.992188 C 353.878906 385.445312 353.878906 433.195312 383.328125 462.644531 L 418.878906 427.09375 C 409.0625 417.277344 409.0625 401.363281 418.878906 391.542969 Z M 699.710938 110.714844 C 709.527344 100.898438 725.441406 100.898438 735.257812 110.714844 L 770.808594 75.164062 C 741.359375 45.710938 693.609375 45.714844 664.160156 75.164062 Z M 599.15625 175.714844 L 649.433594 225.992188 L 684.984375 190.441406 L 634.707031 140.164062 Z M 717.484375 283.628906 C 703.601562 283.628906 692.347656 272.375 692.347656 258.492188 L 642.070312 258.492188 C 642.070312 300.140625 675.835938 333.90625 717.484375 333.90625 Z M 742.621094 258.492188 C 742.621094 272.375 731.367188 283.628906 717.484375 283.628906 L 717.484375 333.90625 C 759.132812 333.90625 792.898438 300.140625 792.898438 258.492188 Z M 717.484375 233.355469 C 731.367188 233.355469 742.621094 244.609375 742.621094 258.492188 L 792.898438 258.492188 C 792.898438 216.84375 759.132812 183.078125 717.484375 183.078125 Z M 717.484375 183.078125 C 675.835938 183.078125 642.070312 216.84375 642.070312 258.492188 L 692.347656 258.492188 C 692.347656 244.609375 703.601562 233.355469 717.484375 233.355469 Z M 749.984375 326.542969 L 825.398438 401.957031 L 860.949219 366.40625 L 785.535156 290.992188 Z M 868.3125 434.457031 C 854.425781 434.457031 843.175781 423.203125 843.175781 409.320312 L 792.898438 409.320312 C 792.898438 450.96875 826.664062 484.734375 868.3125 484.734375 Z M 893.453125 409.320312 C 893.453125 423.203125 882.195312 434.457031 868.3125 434.457031 L 868.3125 484.734375 C 909.960938 484.734375 943.726562 450.96875 943.726562 409.320312 Z M 868.3125 384.183594 C 882.195312 384.183594 893.453125 395.4375 893.453125 409.320312 L 943.726562 409.320312 C 943.726562 367.667969 909.960938 333.90625 868.3125 333.90625 Z M 868.3125 333.90625 C 826.664062 333.90625 792.898438 367.667969 792.898438 409.320312 L 843.175781 409.320312 C 843.175781 395.4375 854.425781 384.183594 868.3125 384.183594 Z M 692.347656 308.769531 L 692.347656 509.871094 L 742.621094 509.871094 L 742.621094 308.769531 Z M 717.484375 585.285156 C 703.601562 585.285156 692.347656 574.03125 692.347656 560.148438 L 642.070312 560.148438 C 642.070312 601.796875 675.835938 635.5625 717.484375 635.5625 Z M 742.621094 560.148438 C 742.621094 574.03125 731.367188 585.285156 717.484375 585.285156 L 717.484375 635.5625 C 759.132812 635.5625 792.898438 601.796875 792.898438 560.148438 Z M 717.484375 535.007812 C 731.367188 535.007812 742.621094 546.261719 742.621094 560.148438 L 792.898438 560.148438 C 792.898438 518.496094 759.132812 484.734375 717.484375 484.734375 Z M 717.484375 484.734375 C 675.835938 484.734375 642.070312 518.496094 642.070312 560.148438 L 692.347656 560.148438 C 692.347656 546.261719 703.601562 535.007812 717.484375 535.007812 Z M 717.484375 484.734375 " fill-opacity="1" fill-rule="nonzero"/></svg>