<svg xmlns="http://www.w3.org/2000/svg" xmlns:xlink="http://www.w3.org/1999/xlink" width="1920" zoomAndPan="magnify" viewBox="0 0 1440 809.999993" height="1080" preserveAspectRatio="xMidYMid meet" version="1.0"><defs><filter x="0%" y="0%" width="100%" height="100%" id="80dba6e422"><feColorMatrix values="0 0 0 0 1 0 0 0 0 1 0 0 0 0 1 0 0 0 1 0" color-interpolation-filters="sRGB"/></filter><clipPath id="620228bb35"><path d="M 338 56 L 1097.578125 56 L 1097.578125 810 L 338 810 Z M 338 56 " clip-rule="nonzero"/></clipPath><clipPath id="ec78eca41e"><path d="M 287.578125 0 L 1097.578125 0 L 1097.578125 810 L 287.578125 810 Z M 287.578125 0 " clip-rule="nonzero"/></clipPath><clipPath id="a765eb5e54"><path d="M 287.578125 0 L 384 0 L 384 406 L 287.578125 406 Z M 287.578125 0 " clip-rule="nonzero"/></clipPath><mask id="62e184ff01"><g filter="url(#80dba6e422)"><rect x="-144" width="1728" fill="#000000" y="-80.999999" height="971.999992" fill-opacity="0.05"/></g></mask><clipPath id="0a8b3f8428"><path d="M 0.578125 0 L 96 0 L 96 405 L 0.578125 405 Z M 0.578125 0 " clip-rule="nonzero"/></clipPath><clipPath id="94e9525680"><rect x="0" width="97" y="0" height="406"/></clipPath><mask id="c14101db5d"><g filter="url(#80dba6e422)"><rect x="-144" width="1728" fill="#000000" y="-80.999999" height="971.999992" fill-opacity="0.05"/></g></mask><clipPath id="b0fbfc6714"><path d="M 2 0 L 96.640625 0 L 96.640625 405 L 2 405 Z M 2 0 " clip-rule="nonzero"/></clipPath><clipPath id="c29eef1be7"><rect x="0" width="97" y="0" height="406"/></clipPath><mask id="966359c1ab"><g filter="url(#80dba6e422)"><rect x="-144" width="1728" fill="#000000" y="-80.999999" height="971.999992" fill-opacity="0.05"/></g></mask><clipPath id="5f08768d5b"><path d="M 0.398438 0 L 95 0 L 95 405 L 0.398438 405 Z M 0.398438 0 " clip-rule="nonzero"/></clipPath><clipPath id="b3f3546155"><rect x="0" width="97" y="0" height="406"/></clipPath><clipPath id="d4cff344ae"><path d="M 1003 0 L 1097.578125 0 L 1097.578125 406 L 1003 406 Z M 1003 0 " clip-rule="nonzero"/></clipPath><mask id="e558c7f3f9"><g filter="url(#80dba6e422)"><rect x="-144" width="1728" fill="#000000" y="-80.999999" height="971.999992" fill-opacity="0.05"/></g></mask><clipPath id="89cd7a33f3"><path d="M 0.441406 0 L 94.578125 0 L 94.578125 405 L 0.441406 405 Z M 0.441406 0 " clip-rule="nonzero"/></clipPath><clipPath id="e012cf9753"><rect x="0" width="95" y="0" height="406"/></clipPath><clipPath id="4b372483d8"><path d="M 287.578125 403 L 382 403 L 382 810 L 287.578125 810 Z M 287.578125 403 " clip-rule="nonzero"/></clipPath><mask id="e835b57c4d"><g filter="url(#80dba6e422)"><rect x="-144" width="1728" fill="#000000" y="-80.999999" height="971.999992" fill-opacity="0.05"/></g></mask><clipPath id="ffb1c37047"><path d="M 0.578125 1 L 94.601562 1 L 94.601562 407 L 0.578125 407 Z M 0.578125 1 " clip-rule="nonzero"/></clipPath><clipPath id="9557084ac9"><rect x="0" width="95" y="0" height="407"/></clipPath><mask id="cf1a03fd85"><g filter="url(#80dba6e422)"><rect x="-144" width="1728" fill="#000000" y="-80.999999" height="971.999992" fill-opacity="0.05"/></g></mask><clipPath id="e685b2b676"><path d="M 2 1 L 96.640625 1 L 96.640625 407 L 2 407 Z M 2 1 " clip-rule="nonzero"/></clipPath><clipPath id="968fcea3ca"><rect x="0" width="97" y="0" height="407"/></clipPath><mask id="4497d2068c"><g filter="url(#80dba6e422)"><rect x="-144" width="1728" fill="#000000" y="-80.999999" height="971.999992" fill-opacity="0.05"/></g></mask><clipPath id="847f48fb3e"><path d="M 0.398438 1 L 95 1 L 95 407 L 0.398438 407 Z M 0.398438 1 " clip-rule="nonzero"/></clipPath><clipPath id="72a9ba6d32"><rect x="0" width="97" y="0" height="407"/></clipPath><clipPath id="f38c569f3f"><path d="M 1001 403 L 1097.578125 403 L 1097.578125 810 L 1001 810 Z M 1001 403 " clip-rule="nonzero"/></clipPath><mask id="4b00cf3252"><g filter="url(#80dba6e422)"><rect x="-144" width="1728" fill="#000000" y="-80.999999" height="971.999992" fill-opacity="0.05"/></g></mask><clipPath id="b8d06073d2"><path d="M 1 1 L 96.578125 1 L 96.578125 407 L 1 407 Z M 1 1 " clip-rule="nonzero"/></clipPath><clipPath id="d629375bd8"><rect x="0" width="97" y="0" height="407"/></clipPath></defs><g clip-path="url(#620228bb35)"><path fill="#699bf2" d="M 1043.46875 810 L 692.578125 810 L 668.113281 738.558594 L 394.820312 773.386719 C 365.5 773.386719 389.796875 784.402344 389.796875 755.082031 L 338.929688 64.3125 C 338.929688 34.992188 367.28125 100.925781 397.089844 100.925781 L 514.050781 118.097656 L 908.847656 212.382812 C 938.167969 212.382812 925.53125 99.792969 925.53125 129.277344 L 1097.414062 404.839844 L 1097.414062 756.378906 C 1097.253906 785.539062 1073.4375 810 1043.46875 810 Z M 1043.46875 810 " fill-opacity="1" fill-rule="nonzero"/></g><g clip-path="url(#ec78eca41e)"><path fill="#699bf2" d="M 1045.738281 0 L 339.417969 0 C 309.445312 0 287.902344 21.546875 287.902344 51.515625 L 287.902344 757.835938 C 287.902344 787.15625 309.445312 809.351562 339.417969 809.351562 L 692.578125 809.351562 L 692.578125 404.675781 L 1097.253906 404.675781 L 1097.253906 51.515625 C 1097.253906 21.546875 1075.707031 0 1045.738281 0 Z M 1045.738281 0 " fill-opacity="1" fill-rule="nonzero"/></g><g clip-path="url(#a765eb5e54)"><g mask="url(#62e184ff01)"><g transform="matrix(1, 0, 0, 1, 287, 0.000000000000039746)"><g clip-path="url(#94e9525680)"><g clip-path="url(#0a8b3f8428)"><path fill="#000000" d="M 52.417969 0 L 95.183594 0 L 95.183594 404.675781 L 0.902344 404.675781 L 0.902344 51.515625 C 0.902344 21.546875 22.445312 0 52.417969 0 Z M 52.417969 0 " fill-opacity="1" fill-rule="nonzero"/></g></g></g></g></g><g mask="url(#c14101db5d)"><g transform="matrix(1, 0, 0, 1, 596, 0.000000000000039746)"><g clip-path="url(#c29eef1be7)"><g clip-path="url(#b0fbfc6714)"><path fill="#000000" d="M 2.292969 0 L 96.578125 0 L 96.578125 404.675781 L 2.292969 404.675781 Z M 2.292969 0 " fill-opacity="1" fill-rule="nonzero"/></g></g></g></g><g mask="url(#966359c1ab)"><g transform="matrix(1, 0, 0, 1, 692, 0.000000000000039746)"><g clip-path="url(#b3f3546155)"><g clip-path="url(#5f08768d5b)"><path fill="#000000" d="M 0.578125 0 L 94.859375 0 L 94.859375 404.675781 L 0.578125 404.675781 Z M 0.578125 0 " fill-opacity="1" fill-rule="nonzero"/></g></g></g></g><g clip-path="url(#d4cff344ae)"><g mask="url(#e558c7f3f9)"><g transform="matrix(1, 0, 0, 1, 1003, 0.000000000000039746)"><g clip-path="url(#e012cf9753)"><g clip-path="url(#89cd7a33f3)"><path fill="#000000" d="M 0.617188 0 L 41.117188 0 C 71.085938 0 94.902344 19.925781 94.902344 51.515625 L 94.902344 404.675781 L 1.265625 404.675781 L 1.265625 0 Z M 0.617188 0 " fill-opacity="1" fill-rule="nonzero"/></g></g></g></g></g><g clip-path="url(#4b372483d8)"><g mask="url(#e835b57c4d)"><g transform="matrix(1, 0, 0, 1, 287, 403)"><g clip-path="url(#9557084ac9)"><g clip-path="url(#ffb1c37047)"><path fill="#000000" d="M 0.902344 1.675781 L 94.535156 1.675781 L 94.535156 407 L 54.683594 407 C 25.363281 407 0.902344 384.804688 0.902344 354.835938 Z M 0.902344 1.675781 " fill-opacity="1" fill-rule="nonzero"/></g></g></g></g></g><g mask="url(#cf1a03fd85)"><g transform="matrix(1, 0, 0, 1, 596, 403)"><g clip-path="url(#968fcea3ca)"><g clip-path="url(#e685b2b676)"><path fill="#000000" d="M 2.292969 1.675781 L 96.578125 1.675781 L 96.578125 406.351562 L 2.292969 406.351562 Z M 2.292969 1.675781 " fill-opacity="1" fill-rule="nonzero"/></g></g></g></g><g mask="url(#4497d2068c)"><g transform="matrix(1, 0, 0, 1, 692, 403)"><g clip-path="url(#72a9ba6d32)"><g clip-path="url(#847f48fb3e)"><path fill="#000000" d="M 0.578125 1.675781 L 94.859375 1.675781 L 94.859375 406.351562 L 0.578125 406.351562 Z M 0.578125 1.675781 " fill-opacity="1" fill-rule="nonzero"/></g></g></g></g><g clip-path="url(#f38c569f3f)"><g mask="url(#4b00cf3252)"><g transform="matrix(1, 0, 0, 1, 1001, 403)"><g clip-path="url(#d629375bd8)"><g clip-path="url(#b8d06073d2)"><path fill="#000000" d="M 2.617188 1.675781 L 96.253906 1.675781 L 96.253906 353.703125 C 96.253906 383.023438 72.4375 407 42.46875 407 L 1.96875 407 L 1.96875 1.675781 Z M 2.617188 1.675781 " fill-opacity="1" fill-rule="nonzero"/></g></g></g></g></g><path fill="#000000" d="M 459.78125 238.464844 C 459.78125 255.148438 459.78125 277.34375 459.78125 299.375 C 459.78125 332.585938 509.679688 332.585938 509.679688 299.375 C 509.679688 277.183594 509.679688 254.988281 509.679688 238.464844 C 531.871094 238.464844 554.066406 238.464844 570.589844 238.464844 C 609.46875 238.464844 609.46875 183.058594 570.589844 183.058594 C 553.90625 183.058594 531.710938 183.058594 509.679688 183.058594 C 509.679688 160.867188 509.679688 144.179688 509.679688 122.148438 C 509.679688 88.9375 459.78125 88.9375 459.78125 122.148438 C 459.78125 144.34375 459.78125 161.027344 459.78125 183.058594 C 437.589844 183.058594 415.394531 183.058594 393.199219 183.058594 C 359.992188 183.058594 359.992188 238.464844 393.199219 238.464844 C 415.394531 238.464844 437.589844 238.464844 459.78125 238.464844 Z M 459.78125 238.464844 " fill-opacity="1" fill-rule="nonzero"/><path fill="#000000" d="M 981.910156 179.011719 C 920.996094 179.011719 859.4375 179.011719 798.363281 179.011719 C 762.398438 179.011719 762.398438 235.0625 798.363281 235.0625 C 859.273438 235.0625 920.835938 235.0625 981.910156 235.0625 C 1018.519531 235.0625 1018.519531 179.011719 981.910156 179.011719 Z M 981.910156 179.011719 " fill-opacity="1" fill-rule="nonzero"/><path fill="#000000" d="M 448.605469 609.929688 C 434.1875 624.347656 419.769531 638.765625 404.863281 653.671875 C 380.402344 678.132812 418.148438 716.363281 443.097656 691.902344 C 457.515625 677.484375 471.933594 663.066406 486.835938 648.160156 C 501.253906 662.578125 515.671875 676.996094 530.578125 691.902344 C 555.039062 716.363281 593.269531 678.617188 568.808594 653.671875 C 554.390625 639.253906 539.972656 624.835938 525.070312 609.929688 C 539.488281 595.511719 553.90625 581.09375 568.808594 566.191406 C 593.269531 541.726562 555.523438 503.496094 530.578125 527.957031 C 516.160156 542.375 501.742188 556.792969 486.835938 571.699219 C 472.417969 557.28125 458 542.863281 443.097656 527.957031 C 418.632812 503.496094 380.402344 541.242188 404.863281 566.191406 C 419.769531 581.09375 434.1875 595.511719 448.605469 609.929688 Z M 448.605469 609.929688 " fill-opacity="1" fill-rule="nonzero"/><path fill="#000000" d="M 987.578125 526.660156 C 926.667969 526.660156 865.105469 526.660156 804.03125 526.660156 C 768.070312 526.660156 768.070312 582.714844 804.03125 582.714844 C 864.945312 582.714844 926.503906 582.714844 987.578125 582.714844 C 1024.191406 582.066406 1024.191406 526.660156 987.578125 526.660156 Z M 987.578125 526.660156 " fill-opacity="1" fill-rule="nonzero"/><path fill="#000000" d="M 987.578125 637.632812 C 926.667969 637.632812 865.105469 637.632812 804.03125 637.632812 C 768.070312 637.632812 768.070312 693.683594 804.03125 693.683594 C 864.945312 693.683594 926.503906 693.683594 987.578125 693.683594 C 1024.191406 693.035156 1024.191406 637.632812 987.578125 637.632812 Z M 987.578125 637.632812 " fill-opacity="1" fill-rule="nonzero"/></svg>